<svg width="109" height="40" viewBox="0 0 109 40" fill="none" xmlns="http://www.w3.org/2000/svg">
<path fill-rule="evenodd" clip-rule="evenodd" d="M13 17C13 12.0294 17.0294 8 22 8C26.9706 8 31 12.0294 31 17V23C31 27.9706 26.9706 32 22 32C17.0294 32 13 27.9706 13 23V17ZM27.2441 15.6609L27.2441 15.6727H27.25V25.5239H27.2441V28.8272C25.4262 28.8272 23.9525 27.3535 23.9525 25.5356L23.9526 25.5239H23.9467V15.6727H23.9525V12.3693H23.9525C25.7704 12.3693 27.2441 13.843 27.2441 15.6609ZM19.6994 17.6489C21.3284 17.6489 22.6489 16.3284 22.6489 14.6994C22.6489 13.0705 21.3284 11.75 19.6994 11.75C18.0705 11.75 16.75 13.0705 16.75 14.6994C16.75 16.3284 18.0705 17.6489 19.6994 17.6489Z" fill="black"/>
<path d="M39.068 11.6H41.928V27H39.068V11.6ZM51.1094 27.154C49.9214 27.154 48.8507 26.8973 47.8974 26.384C46.9441 25.8707 46.1961 25.1593 45.6534 24.25C45.1254 23.326 44.8614 22.2847 44.8614 21.126C44.8614 19.9673 45.1254 18.9333 45.6534 18.024C46.1961 17.1147 46.9441 16.4033 47.8974 15.89C48.8507 15.3767 49.9214 15.12 51.1094 15.12C52.3121 15.12 53.3901 15.3767 54.3434 15.89C55.2967 16.4033 56.0374 17.1147 56.5654 18.024C57.1081 18.9333 57.3794 19.9673 57.3794 21.126C57.3794 22.2847 57.1081 23.326 56.5654 24.25C56.0374 25.1593 55.2967 25.8707 54.3434 26.384C53.3901 26.8973 52.3121 27.154 51.1094 27.154ZM51.1094 24.8C52.1214 24.8 52.9574 24.4627 53.6174 23.788C54.2774 23.1133 54.6074 22.226 54.6074 21.126C54.6074 20.026 54.2774 19.1387 53.6174 18.464C52.9574 17.7893 52.1214 17.452 51.1094 17.452C50.0974 17.452 49.2614 17.7893 48.6014 18.464C47.9561 19.1387 47.6334 20.026 47.6334 21.126C47.6334 22.226 47.9561 23.1133 48.6014 23.788C49.2614 24.4627 50.0974 24.8 51.1094 24.8ZM67.0711 26.362C66.7484 26.626 66.3524 26.824 65.8831 26.956C65.4284 27.088 64.9444 27.154 64.4311 27.154C63.1404 27.154 62.1431 26.8167 61.4391 26.142C60.7351 25.4673 60.3831 24.4847 60.3831 23.194V17.54H58.4471V15.34H60.3831V12.656H63.1331V15.34H66.2791V17.54H63.1331V23.128C63.1331 23.7 63.2724 24.14 63.5511 24.448C63.8297 24.7413 64.2331 24.888 64.7611 24.888C65.3771 24.888 65.8904 24.7267 66.3011 24.404L67.0711 26.362ZM76.116 26.362C75.7933 26.626 75.3973 26.824 74.928 26.956C74.4733 27.088 73.9893 27.154 73.476 27.154C72.1853 27.154 71.188 26.8167 70.484 26.142C69.78 25.4673 69.428 24.4847 69.428 23.194V17.54H67.492V15.34H69.428V12.656H72.178V15.34H75.324V17.54H72.178V23.128C72.178 23.7 72.3173 24.14 72.596 24.448C72.8747 24.7413 73.278 24.888 73.806 24.888C74.422 24.888 74.9353 24.7267 75.346 24.404L76.116 26.362ZM89.1634 15.252L83.6634 27.946C83.15 29.222 82.5267 30.1167 81.7934 30.63C81.06 31.158 80.1727 31.422 79.1314 31.422C78.5447 31.422 77.9654 31.3267 77.3934 31.136C76.8214 30.9453 76.352 30.6813 75.9854 30.344L77.0854 28.32C77.3494 28.5693 77.6574 28.7673 78.0094 28.914C78.376 29.0607 78.7427 29.134 79.1094 29.134C79.5934 29.134 79.9894 29.0093 80.2974 28.76C80.62 28.5107 80.9134 28.0927 81.1774 27.506L81.3754 27.044L76.2494 15.252H79.1094L82.8054 23.942L86.5234 15.252H89.1634Z" fill="black"/>
</svg>
